<?xml version="1.0" encoding="UTF-8"?>
<svg width="48px" height="48px" viewBox="0 0 48 48" version="1.1" xmlns="http://www.w3.org/2000/svg" xmlns:xlink="http://www.w3.org/1999/xlink">
    <title>icon-location</title>
    <g id="Page-1" stroke="none" stroke-width="1" fill="none" fill-rule="evenodd">
        <g id="icon-location">
            <path d="M24,4 C16.27,4 10,10.27 10,18 C10,28.5 24,44 24,44 C24,44 38,28.5 38,18 C38,10.27 31.73,4 24,4 Z M24,23 C21.24,23 19,20.76 19,18 C19,15.24 21.24,13 24,13 C26.76,13 29,15.24 29,18 C29,20.76 26.76,23 24,23 Z" id="Shape" fill="#AFAFAF" fill-rule="nonzero"></path>
            <polygon id="Path" points="0 0 48 0 48 48 0 48"></polygon>
        </g>
    </g>
</svg>