<?xml version="1.0" ?><svg height="1000" width="1000" xmlns="http://www.w3.org/2000/svg"><path d="M476 942c-19-3-30-6-42-12-33-16-55-49-65-95l-4-13-14-6a397 397 0 01-171-134c0-1 33-21 74-44l74-44-21-18c-1-1-25 12-72 39l-71 41-5-5c-9-15-27-54-27-57 0-1 20-7 77-22l78-21-4-7a345 345 0 01-12-18l-75 20c-69 18-73 19-75 18a417 417 0 01-11-173l64 16 65 17 1-3a375 375 0 01-1-26 1825 1825 0 00-123-34 242 242 0 0124-71c1-1 24 12 52 28l53 30a481 481 0 016-28 2562 2562 0 00-97-58 406 406 0 01124-136c1 1 12 18 24 40s23 39 24 40l19-15 3-3-22-38-22-40a266 266 0 0173-32l11 41 11 40c1 0 5 0 13-4l13-5-9-41-10-40a379 379 0 01189 0l-11 40-10 41c1 1 26 9 27 8a1000 1000 0 0022-80c2-1 4 0 15 4 25 9 56 24 58 28l-21 39-22 39s1 2 3 2a220 220 0 0119 15l23-39c12-22 23-39 24-40a406 406 0 01124 136l-48 29-47 28c-1 1-1 4 1 9 3 7 4 15 2 19v2l53-30c29-17 52-30 53-29a307 307 0 0124 71 2094 2094 0 01-144 40l4 2c3 0 9 3 12 6 2 3 5 8 5 11 0 5-1 5 65-13l64-16c2 0 5 29 6 52a417 417 0 01-17 121 15995 15995 0 00-171-44l-7 11 3 3c3 3 6 9 6 12l1 3c1 2 25 8 79 23 57 15 78 21 78 22a323 323 0 01-32 62l-70-40-71-40c-2 0-22 16-23 18l74 44c41 23 74 43 74 44l-22 28a404 404 0 01-163 112l-4 13c-13 62-49 99-100 106l-10 2c-3 2-30 1-45-1z" fill="#fdefbb"/><path d="M489 944c0-1-6-2-13-2-24-3-40-9-54-19-27-19-45-49-54-91l-3-10-14-6a397 397 0 01-171-134c0-1 33-21 74-44l74-44-23-19a5868 5868 0 00-141 81l-5-5c-9-15-27-54-27-57a3961 3961 0 00154-43c1-1-1-5-13-23l-2-2-75 20c-69 18-73 19-75 18a417 417 0 01-11-173l64 16 65 17 1-14-1-15-61-17-62-17a242 242 0 0124-71c1-1 24 12 52 28l52 30 2-4a2255 2255 0 015-24 2460 2460 0 00-97-58 406 406 0 01124-136c1 1 12 18 24 40s23 39 24 40l9-7 13-11a4077 4077 0 00-44-78 266 266 0 0173-32l11 41 11 40c1 1 4 0 11-3l12-4c5-1 5-1-6-43l-10-40a379 379 0 01189 0l-10 40-11 40 16 7c6 2 10 3 11 2a872 872 0 0022-80c2-1 4 0 15 4 25 9 56 24 58 28l-21 39-22 39 4 4a435 435 0 0118 13l23-39c12-22 23-39 24-40a406 406 0 01124 136l-48 29-47 28c-1 1 0 4 1 9 3 8 4 14 2 19v2l53-30c29-17 52-30 53-29a307 307 0 0124 71c-2 1-142 39-143 38l-1-5-3-31c-1-3-1-4-5-4l-8-3c-4-3-10-11-11-17a221 221 0 10-378 206c5 6 30 27 31 27l-1-7c-7-29-9-62-4-80 7-30 25-54 53-68a259 259 0 01157-7c35 13 60 39 68 75a206 206 0 01-5 87l14-11a4619 4619 0 0134-30c11-5 26 2 28 14l2 5 78 22c57 15 78 21 78 22a323 323 0 01-32 62l-70-40-71-40c-2 0-7 4-18 13l-5 5 74 44c41 23 74 43 74 44l-22 28a404 404 0 01-163 112l-3 10c-12 57-42 94-85 105l-15 4-10 2-18 1h-15zm303-402l-84-22 4-8 4-9-2-3c-4-3-7-10-7-15l1-9a6275 6275 0 0111-43c2-15 3-18 6-21 5-8 16-11 25-7 5 2 9 7 11 14l1 5a12041 12041 0 00128-33c2 0 5 29 6 52 1 27-4 69-12 102-4 18-5 20-8 20l-84-23z" fill="#fde790"/><path d="M489 944c0-1-6-2-13-2-24-3-40-9-54-19-27-19-45-49-54-91l-3-10-14-6a397 397 0 01-171-134c0-1 33-21 74-44l74-44-23-19a5868 5868 0 00-141 81l-5-5c-9-15-27-54-27-57a3961 3961 0 00154-43c1-1-1-5-13-23l-2-2-75 20c-69 18-73 19-75 18a417 417 0 01-11-173l64 16 65 17 1-14-1-15-61-17-62-17a242 242 0 0124-71c1-1 24 12 52 28l52 30 2-4a2255 2255 0 015-24 2460 2460 0 00-97-58 406 406 0 01124-136c1 1 12 18 24 40s23 39 24 40l9-7 13-11a4077 4077 0 00-44-78 266 266 0 0173-32l11 41 11 40c1 1 4 0 11-3l12-4c5-1 5-1-6-43l-10-40a379 379 0 01189 0l-10 40-11 40 16 7c6 2 10 3 11 2a872 872 0 0022-80c2-1 4 0 15 4 25 9 56 24 58 28l-21 39-22 39 4 4a435 435 0 0118 13l23-39c12-22 23-39 24-40a406 406 0 01124 136l-48 29-47 28c-1 1 0 4 1 9 3 8 4 14 2 19v2l53-30c29-17 52-30 53-29a307 307 0 0124 71c-2 1-142 39-143 38l-1-5-3-31c-1-3-1-4-5-4-10-2-15-8-21-28-11-33-29-61-54-86a219 219 0 00-186-63 219 219 0 00-189 188 221 221 0 0042 163c9 11 13 16 26 26a231 231 0 0186 145v-61c-1-42-3-69-5-89-2-22-1-20-9-22-26-7-40-19-40-36 0-5 0-7 4-14 5-11 15-21 23-25 6-3 16-3 22 0 10 5 19 21 23 41l3 7c2 2 84 2 86 0l3-7c4-20 13-36 23-41 6-3 16-3 23 0 7 4 17 14 22 25 4 7 4 9 4 14 0 17-14 29-40 36-8 2-7 0-9 22a1295 1295 0 00-2 137c10-51 37-93 89-136l17-17c5-6 11-9 18-9 10 1 17 8 19 16l2 5 78 22c57 15 78 21 78 22a323 323 0 01-32 62l-70-40-71-40c-2 0-7 4-18 13l-5 5 74 44c41 23 74 43 74 44l-22 28a404 404 0 01-163 112l-3 10c-12 57-42 94-85 105l-15 4-10 2-18 1h-15zm12-192c5-8 9-10 21-11h10v-50c1-69 4-126 7-149v-4h-78v4c4 24 6 79 7 150l1 63 1 3h29zm-80-259c-2-5-3-5-6-1-2 3-2 4 3 6 3 2 4 2 4 0l-1-5zm165 3c1-1-3-7-4-7s-4 6-4 9c0 2 0 2 4 0l4-2zm206 46l-84-22 4-8 4-9-2-3c-4-3-7-10-7-15l3-13c5-16 7-24 9-41 3-13 3-16 6-19 5-8 16-11 25-7 5 2 9 7 11 14l1 5a12041 12041 0 00128-33c2 0 5 29 6 52 1 27-4 69-12 102-4 18-5 20-8 20l-84-23z" fill="#abd7e0"/><path d="M489 943a212 212 0 01-36-6c-38-11-67-43-80-90-8-27-10-45-10-73l-1-19 4-4c4-7 9-9 21-10h10l-1-13c0-36-11-67-34-98-9-13-31-35-45-47-14-11-22-21-40-50-16-27-27-56-33-89-4-21-4-58-1-78 1-13 9-45 14-58a248 248 0 0194-120c17-14 55-32 87-40a270 270 0 01180 20 222 222 0 0156 38 263 263 0 0180 134c0 14-17 24-29 16-6-3-9-9-14-25-11-33-29-61-54-86a219 219 0 00-186-63 219 219 0 00-189 188 221 221 0 0042 163c9 11 13 16 26 26a231 231 0 0186 145v-61c-1-42-3-69-5-89-2-22-1-20-9-22-26-7-40-19-40-36 0-5 0-7 4-14 5-11 15-21 23-25 6-3 16-3 22 0 10 5 19 21 23 41l3 7c2 2 84 2 86 0l3-7c4-20 13-36 23-41 6-3 16-3 23 0 7 4 17 14 22 25 4 7 4 9 4 14 0 17-14 29-40 36-8 2-7 0-9 22a1295 1295 0 00-2 137c10-51 37-93 89-136l17-17c12-15 32-10 36 9 1 4 1 6-1 9-1 5-10 16-15 19-14 9-43 39-55 55-23 31-34 62-34 98l-1 13h10c12 1 17 3 21 10l3 4v19c0 28-2 46-10 73-13 47-42 79-80 89l-17 4-9 2-32 1zm12-191c5-8 9-10 21-11h10v-50c1-69 4-126 7-149v-4h-78v4c4 24 6 79 7 150l1 63 1 3h29zm-80-259c-2-5-3-5-6-1-2 3-2 4 3 6 3 2 4 2 4 0l-1-5zm165 3c1-1-3-7-4-7s-4 6-4 9c0 2 0 2 4 0l4-2zm132 7c-11-6-13-15-8-31s7-24 9-40c3-18 5-21 11-26 4-2 5-2 10-2 11 0 18 6 20 17 2 9-4 39-12 64-4 10-7 15-13 18s-11 2-17 0z" fill="#f5ae87"/><path d="M489 943a212 212 0 01-36-6c-38-11-67-43-80-90-8-27-10-45-10-73l-1-19 4-4c4-7 9-9 21-10h10l-1-13c0-36-11-67-34-98-9-13-31-35-45-47-14-11-22-21-40-50-16-27-27-56-33-89-4-21-4-58-1-78 1-13 9-45 14-58a248 248 0 0194-120c17-14 55-32 87-40a270 270 0 01180 20 222 222 0 0156 38 263 263 0 0180 134c0 12-12 21-23 18-10-2-14-8-20-27a223 223 0 00-243-148 221 221 0 00-138 357l19 19c31 27 52 53 67 84 10 21 16 40 20 66v5l1-4a1756 1756 0 00-7-177l-10-3c-33-8-45-27-32-51 4-7 14-18 20-21 5-3 13-4 18-2 6 1 13 7 16 13 4 5 10 21 11 28 2 10-2 10 47 10s45 0 47-10c1-7 7-23 11-28 3-6 10-12 16-13 10-3 19 1 29 11 14 14 18 30 11 42-4 9-17 17-34 21l-10 3-3 35c-3 37-6 135-4 142l1 4v-5c4-26 10-45 20-66 15-32 37-58 69-86l21-19c4-5 6-6 10-8h10c8 2 13 8 15 17 1 4 1 6-1 9-1 5-10 16-15 19-14 9-43 39-55 55-23 31-34 62-34 98l-1 13h10c12 1 17 3 21 10l3 4v19c0 28-2 46-10 73-13 47-42 79-80 89l-17 4-9 2-32 1zm32-42c13-1 20-3 28-7l15-11-64-1-64 1c0 2 10 9 17 12 8 4 16 5 32 7 13 2 17 2 36-1zm64-50l7-23c2-10 5-28 5-38l1-8-42-1c-41 0-42-1-46-3l-7-6c-2-4-2-5-2-11s0-7 2-11c5-6 10-8 21-9h9v-57a1539 1539 0 016-144l1-3h-79v3l1 22c3 33 4 61 5 126l1 66c3 8 0 18-8 23l-4 3-27 1h-27l1 9 1 10c0 2 5 2 71 2 71 0 72 1 75 3 5 3 6 7 6 12 1 5-1 9-6 12-3 2-4 3-72 3s-68 1-68 2c0 4 4 15 5 17l85 1 85-1zM423 499c0-3-3-11-5-11-1 0-5 5-5 7s5 5 8 5l2-1zm161-1l3-3c0-2-4-7-5-7-2 0-5 8-5 11 0 1 3 1 7-1zm135 5c-5-3-10-8-11-14-1-4-1-6 1-14 7-21 8-27 10-42 3-17 5-21 10-25 4-4 9-5 15-4 9 2 14 7 16 17 2 13-11 68-18 77-7 7-15 9-23 5z" fill="#9d9c92"/><path d="M475 939c-18-2-30-6-41-11-32-16-54-49-64-96-4-19-5-27-6-51-1-22 0-25 4-31 3-5 9-7 20-8h10l-1-17c0-25-4-42-14-64-12-26-35-53-63-77-17-14-23-22-45-56a263 263 0 01-31-165l15-57c8-19 21-43 35-62 17-21 48-50 72-64a259 259 0 01387 160c0 3-3 10-6 13-6 6-18 6-24 0-4-4-7-10-9-16a231 231 0 00-78-113 224 224 0 00-293 20 211 211 0 00-64 151c0 24 1 41 7 61 10 41 33 80 61 103 15 13 36 35 45 47 30 39 43 77 43 125l1 10c2 1 3-22 2-65-1-75-5-140-8-143l-10-4c-17-4-29-11-34-21-6-12-1-27 13-41 6-7 8-8 13-10 8-2 14-1 20 3 8 5 14 16 20 36 2 9 3 10 5 11h86c2-1 3-2 5-11 6-20 12-31 20-36 6-4 12-5 20-3 5 2 7 3 13 10 14 14 19 29 13 41-5 10-17 17-34 21l-10 4a1184 1184 0 00-5 194c0-21 3-41 11-62 13-39 38-73 80-108l18-18c12-16 35-7 34 13-1 8-6 14-28 32-28 23-50 51-63 77-10 22-14 39-14 64l-1 17h10l14 3c4 2 8 7 10 12a297 297 0 01-12 99c-17 49-50 78-94 83l-9 2c-4 2-28 1-46-2zm45-37c20-2 29-6 40-14 9-7 13-7-60-7l-65 1c0 2 9 9 16 13 15 8 44 11 69 7zm66-52c2-4 7-19 9-33 3-16 4-34 3-36l-41-1c-41 0-44 0-49-4-11-9-8-27 5-32l11-2h9l1-54a1803 1803 0 016-149v-3h-81l1 4 1 16c2 26 4 74 5 133 0 51 0 63 2 67 2 9-2 18-10 22-4 2-6 2-30 2l-26 1c-1 2 0 19 1 21l71 1c65 0 71 0 74 2 7 4 10 12 6 19-5 7-2 7-77 7h-68v2c0 4 4 15 6 18l1 2h168zM424 501c0-4-4-15-5-15-3 0-7 7-7 9s2 3 5 5c5 2 7 3 7 1zm161-2l3-4c0-2-4-9-7-9-1 0-5 11-5 15 0 2 4 1 8-2zm141 4h-4c-4-1-10-7-12-11v-16a7374 7374 0 0111-41l3-19c1-3 6-8 10-10 6-2 15 0 19 4 3 2 6 9 6 14 0 15-11 62-17 71-3 5-12 10-17 8z" fill="#8e877c"/><path d="M476 939c-8-1-19-3-23-5-36-9-62-37-76-79-8-23-12-47-13-76 0-20 0-24 5-29 4-5 8-6 18-7l11-1c2-2 1-29-3-46-4-23-17-49-34-71-9-12-25-29-39-40a243 243 0 01-79-194 260 260 0 01124-211c16-10 26-15 47-22 32-12 52-15 87-15 34 0 55 3 85 14a254 254 0 01165 175c2 3 1 11 0 15-4 7-12 11-20 9s-12-8-18-25a232 232 0 00-77-108 226 226 0 00-169-43 226 226 0 00-187 187 212 212 0 0067 194 231 231 0 0176 104c8 21 10 34 11 59 0 18 1 19 3 19a2103 2103 0 00-5-211l-11-3c-12-3-19-7-26-12-15-12-14-31 4-49 7-7 12-10 18-11 16-1 27 12 34 40l4 10c1 1 11 2 45 2s44-1 45-2l4-10c7-28 18-41 34-40 6 1 11 4 18 11 9 9 15 20 14 29 0 15-12 26-36 32l-10 3a1810 1810 0 00-7 210h2c2 0 2-2 2-15 0-30 6-57 20-85a252 252 0 0167-82l21-19c9-9 13-11 20-9s12 8 13 16c2 9-5 18-26 35-14 11-32 30-42 42-17 22-30 48-34 71-4 17-5 44-3 46l11 1c10 1 14 2 18 7 5 5 5 9 5 29-4 93-40 149-104 159-6 0-11 2-11 2-2 2-31 1-45-1zm37-35c25-2 36-6 48-16 11-8 15-7-61-7s-72-1-61 7c13 11 23 14 60 18l14-2zm73-52a185 185 0 0013-71c0-2-11-2-43-2h-42l-4-3c-8-6-10-16-5-25 4-5 9-7 20-8h10v-55a3377 3377 0 016-152c-1-2-81-2-82 0v10c3 30 5 71 6 146l2 67c0 6 0 9-4 13-5 6-8 7-36 7-22 0-26 0-26 2-1 2 0 19 1 21s5 2 71 2c79 0 75 0 80 7 3 4 3 8 0 12-5 7-2 7-77 7l-69 1 7 21 1 2h170l1-2zM425 502c2-3-4-17-6-17-3 0-8 7-8 10s1 3 5 5c6 3 7 3 9 2zm158-1c5-3 6-3 6-6s-5-10-8-10c-2 0-8 14-6 17 2 1 2 1 8-1zm137 1c-4-2-9-8-10-13-1-4-1-5 2-13a309 309 0 0013-60c3-7 9-10 16-10 9 0 16 6 17 15 2 10-11 66-17 75-4 6-14 8-21 6z" fill="#7a7a7a"/></svg>